<?xml version="1.0" encoding="utf-8" standalone="no"?>
<!DOCTYPE svg PUBLIC "-//W3C//DTD SVG 1.1//EN"
  "http://www.w3.org/Graphics/SVG/1.1/DTD/svg11.dtd">
<svg role="img" xmlns:xlink="http://www.w3.org/1999/xlink" width="820" height="460" viewBox="0 0 820 460" xmlns="http://www.w3.org/2000/svg" version="1.1">
 <title>Neutral MLP, validation bpb</title>
<desc>Eligible S3 repairs. GELU mean of two seeds 1.5076/1.3856/1.3059. SwiGLU mean of two seeds 1.4631/1.3473/1.2704, lower at T, 2T and 4T. ReLU2 mean of two seeds 1.4770/1.3638/1.2822. SwiGLU is the recorded choice; nominal d_ff is 274.</desc>
 <metadata>
  <rdf:RDF xmlns:dc="http://purl.org/dc/elements/1.1/" xmlns:cc="http://creativecommons.org/ns#" xmlns:rdf="http://www.w3.org/1999/02/22-rdf-syntax-ns#">
   <cc:Work>
    <dc:type rdf:resource="http://purl.org/dc/dcmitype/StillImage"/>
    <dc:title>Neutral MLP, validation bpb</dc:title>
    <dc:description>Eligible S3 repairs. GELU mean of two seeds 1.5076/1.3856/1.3059. SwiGLU mean of two seeds 1.4631/1.3473/1.2704, lower at T, 2T and 4T. ReLU2 mean of two seeds 1.4770/1.3638/1.2822. SwiGLU is the recorded choice; nominal d_ff is 274.</dc:description>
    <dc:format>image/svg+xml</dc:format>
    <dc:creator>
     <cc:Agent>
      <dc:title>Matplotlib v3.11.2, https://matplotlib.org/</dc:title>
     </cc:Agent>
    </dc:creator>
   </cc:Work>
  </rdf:RDF>
 </metadata>
 <defs>
  <style type="text/css">*{stroke-linejoin: round; stroke-linecap: butt}</style>
 </defs>
 <g id="figure_1">
  <g id="patch_1">
   <path d="M 0 460 
L 820 460 
L 820 0 
L 0 0 
z
" style="fill: #f6f3ec"/>
  </g>
  <g id="axes_1">
   <g id="patch_2">
    <path d="M 64 402 
L 592 402 
L 592 72 
L 64 72 
z
" style="fill: #fffdf9"/>
   </g>
   <g id="matplotlib.axis_1">
    <g id="xtick_1">
     <g id="line2d_1"/>
     <g id="text_1">
      <text style="font-size: 13px; font-family: 'DejaVu Sans', sans-serif; text-anchor: middle; fill: #1d1c19" x="152" y="414.876953" transform="rotate(-0 152 414.876953)">T</text>
     </g>
    </g>
    <g id="xtick_2">
     <g id="line2d_2"/>
     <g id="text_2">
      <text style="font-size: 13px; font-family: 'DejaVu Sans', sans-serif; text-anchor: middle; fill: #1d1c19" x="328" y="414.876953" transform="rotate(-0 328 414.876953)">2T</text>
     </g>
    </g>
    <g id="xtick_3">
     <g id="line2d_3"/>
     <g id="text_3">
      <text style="font-size: 13px; font-family: 'DejaVu Sans', sans-serif; text-anchor: middle; fill: #1d1c19" x="504" y="414.876953" transform="rotate(-0 504 414.876953)">4T</text>
     </g>
    </g>
    <g id="text_4">
     <text style="font-size: 10px; font-family: 'DejaVu Sans', sans-serif; text-anchor: middle; fill: #5e5a53" x="328" y="431.598437" transform="rotate(-0 328 431.598437)">cooldown end</text>
    </g>
   </g>
   <g id="matplotlib.axis_2">
    <g id="ytick_1">
     <g id="line2d_4">
      <path d="M 64 380 
L 592 380 
" clip-path="url(#pb2941056e6)" style="fill: none; stroke: #ece7de; stroke-width: 0.8; stroke-linecap: square"/>
     </g>
     <g id="line2d_5"/>
     <g id="text_5">
      <text style="font-size: 11px; font-family: 'DejaVu Sans', sans-serif; text-anchor: end; fill: #5e5a53" x="62" y="384.178711" transform="rotate(-0 62 384.178711)">1.25</text>
     </g>
    </g>
    <g id="ytick_2">
     <g id="line2d_6">
      <path d="M 64 325 
L 592 325 
" clip-path="url(#pb2941056e6)" style="fill: none; stroke: #ece7de; stroke-width: 0.8; stroke-linecap: square"/>
     </g>
     <g id="line2d_7"/>
     <g id="text_6">
      <text style="font-size: 11px; font-family: 'DejaVu Sans', sans-serif; text-anchor: end; fill: #5e5a53" x="62" y="329.178711" transform="rotate(-0 62 329.178711)">1.30</text>
     </g>
    </g>
    <g id="ytick_3">
     <g id="line2d_8">
      <path d="M 64 270 
L 592 270 
" clip-path="url(#pb2941056e6)" style="fill: none; stroke: #ece7de; stroke-width: 0.8; stroke-linecap: square"/>
     </g>
     <g id="line2d_9"/>
     <g id="text_7">
      <text style="font-size: 11px; font-family: 'DejaVu Sans', sans-serif; text-anchor: end; fill: #5e5a53" x="62" y="274.178711" transform="rotate(-0 62 274.178711)">1.35</text>
     </g>
    </g>
    <g id="ytick_4">
     <g id="line2d_10">
      <path d="M 64 215 
L 592 215 
" clip-path="url(#pb2941056e6)" style="fill: none; stroke: #ece7de; stroke-width: 0.8; stroke-linecap: square"/>
     </g>
     <g id="line2d_11"/>
     <g id="text_8">
      <text style="font-size: 11px; font-family: 'DejaVu Sans', sans-serif; text-anchor: end; fill: #5e5a53" x="62" y="219.178711" transform="rotate(-0 62 219.178711)">1.40</text>
     </g>
    </g>
    <g id="ytick_5">
     <g id="line2d_12">
      <path d="M 64 160 
L 592 160 
" clip-path="url(#pb2941056e6)" style="fill: none; stroke: #ece7de; stroke-width: 0.8; stroke-linecap: square"/>
     </g>
     <g id="line2d_13"/>
     <g id="text_9">
      <text style="font-size: 11px; font-family: 'DejaVu Sans', sans-serif; text-anchor: end; fill: #5e5a53" x="62" y="164.178711" transform="rotate(-0 62 164.178711)">1.45</text>
     </g>
    </g>
    <g id="ytick_6">
     <g id="line2d_14">
      <path d="M 64 105 
L 592 105 
" clip-path="url(#pb2941056e6)" style="fill: none; stroke: #ece7de; stroke-width: 0.8; stroke-linecap: square"/>
     </g>
     <g id="line2d_15"/>
     <g id="text_10">
      <text style="font-size: 11px; font-family: 'DejaVu Sans', sans-serif; text-anchor: end; fill: #5e5a53" x="62" y="109.178711" transform="rotate(-0 62 109.178711)">1.50</text>
     </g>
    </g>
   </g>
   <g id="line2d_16">
    <path d="M 152 100.66957 
L 328 232.949011 
L 504 319.852599 
" clip-path="url(#pb2941056e6)" style="fill: none; stroke: #0d6a43; stroke-opacity: 0.5; stroke-linecap: square"/>
   </g>
   <g id="line2d_17">
    <path d="M 152 92.658318 
L 328 228.626825 
L 504 317.269866 
" clip-path="url(#pb2941056e6)" style="fill: none; stroke: #0d6a43; stroke-opacity: 0.5; stroke-linecap: square"/>
   </g>
   <g id="line2d_18">
    <path d="M 152 152.516733 
L 328 280.659679 
L 504 367.379818 
" clip-path="url(#pb2941056e6)" style="fill: none; stroke: #9a3412; stroke-opacity: 0.5; stroke-linecap: square"/>
   </g>
   <g id="line2d_19">
    <path d="M 152 138.611928 
L 328 265.205727 
L 504 347.791226 
" clip-path="url(#pb2941056e6)" style="fill: none; stroke: #9a3412; stroke-opacity: 0.5; stroke-linecap: square"/>
   </g>
   <g id="line2d_20">
    <path d="M 152 132.636585 
L 328 259.293697 
L 504 346.190455 
" clip-path="url(#pb2941056e6)" style="fill: none; stroke: #4a3f6b; stroke-opacity: 0.5; stroke-linecap: square"/>
   </g>
   <g id="line2d_21">
    <path d="M 152 128.056483 
L 328 250.332575 
L 504 342.88273 
" clip-path="url(#pb2941056e6)" style="fill: none; stroke: #4a3f6b; stroke-opacity: 0.5; stroke-linecap: square"/>
   </g>
   <g id="patch_3">
    <path d="M 64 402 
L 64 72 
" style="fill: none; stroke: #e3ddd2; stroke-width: 0.8; stroke-linejoin: miter; stroke-linecap: square"/>
   </g>
   <g id="patch_4">
    <path d="M 592 402 
L 592 72 
" style="fill: none; stroke: #e3ddd2; stroke-width: 0.8; stroke-linejoin: miter; stroke-linecap: square"/>
   </g>
   <g id="patch_5">
    <path d="M 64 402 
L 592 402 
" style="fill: none; stroke: #e3ddd2; stroke-width: 0.8; stroke-linejoin: miter; stroke-linecap: square"/>
   </g>
   <g id="patch_6">
    <path d="M 64 72 
L 592 72 
" style="fill: none; stroke: #e3ddd2; stroke-width: 0.8; stroke-linejoin: miter; stroke-linecap: square"/>
   </g>
   <g id="line2d_22">
    <path d="M 152 96.663944 
L 328 230.787918 
L 504 318.561232 
" clip-path="url(#pb2941056e6)" style="fill: none; stroke: #0d6a43; stroke-width: 2.4; stroke-linecap: round"/>
   </g>
   <g id="line2d_23">
    <path d="M 152 145.56433 
L 328 272.932703 
L 504 357.585522 
" clip-path="url(#pb2941056e6)" style="fill: none; stroke: #9a3412; stroke-width: 2.4; stroke-linecap: round"/>
   </g>
   <g id="line2d_24">
    <path d="M 152 130.346534 
L 328 254.813136 
L 504 344.536593 
" clip-path="url(#pb2941056e6)" style="fill: none; stroke: #4a3f6b; stroke-width: 2.4; stroke-linecap: round"/>
   </g>
   <g id="PathCollection_1">
    <defs>
     <path id="m85bc2faf7c" d="M 0 2.12132 
C 0.562581 2.12132 1.102195 1.897805 1.5 1.5 
C 1.897805 1.102195 2.12132 0.562581 2.12132 0 
C 2.12132 -0.562581 1.897805 -1.102195 1.5 -1.5 
C 1.102195 -1.897805 0.562581 -2.12132 0 -2.12132 
C -0.562581 -2.12132 -1.102195 -1.897805 -1.5 -1.5 
C -1.897805 -1.102195 -2.12132 -0.562581 -2.12132 0 
C -2.12132 0.562581 -1.897805 1.102195 -1.5 1.5 
C -1.102195 1.897805 -0.562581 2.12132 0 2.12132 
z
" style="stroke: #fffdf9; stroke-width: 0.6"/>
    </defs>
    <g clip-path="url(#pb2941056e6)">
     <use xlink:href="#m85bc2faf7c" x="152" y="100.66957" style="fill: #0d6a43; stroke: #fffdf9; stroke-width: 0.6"/>
     <use xlink:href="#m85bc2faf7c" x="328" y="232.949011" style="fill: #0d6a43; stroke: #fffdf9; stroke-width: 0.6"/>
     <use xlink:href="#m85bc2faf7c" x="504" y="319.852599" style="fill: #0d6a43; stroke: #fffdf9; stroke-width: 0.6"/>
    </g>
   </g>
   <g id="PathCollection_2">
    <g clip-path="url(#pb2941056e6)">
     <use xlink:href="#m85bc2faf7c" x="152" y="92.658318" style="fill: #0d6a43; stroke: #fffdf9; stroke-width: 0.6"/>
     <use xlink:href="#m85bc2faf7c" x="328" y="228.626825" style="fill: #0d6a43; stroke: #fffdf9; stroke-width: 0.6"/>
     <use xlink:href="#m85bc2faf7c" x="504" y="317.269866" style="fill: #0d6a43; stroke: #fffdf9; stroke-width: 0.6"/>
    </g>
   </g>
   <g id="PathCollection_3">
    <defs>
     <path id="md2a18f3ed9" d="M 0 2.12132 
C 0.562581 2.12132 1.102195 1.897805 1.5 1.5 
C 1.897805 1.102195 2.12132 0.562581 2.12132 0 
C 2.12132 -0.562581 1.897805 -1.102195 1.5 -1.5 
C 1.102195 -1.897805 0.562581 -2.12132 0 -2.12132 
C -0.562581 -2.12132 -1.102195 -1.897805 -1.5 -1.5 
C -1.897805 -1.102195 -2.12132 -0.562581 -2.12132 0 
C -2.12132 0.562581 -1.897805 1.102195 -1.5 1.5 
C -1.102195 1.897805 -0.562581 2.12132 0 2.12132 
z
" style="stroke: #fffdf9; stroke-width: 0.6"/>
    </defs>
    <g clip-path="url(#pb2941056e6)">
     <use xlink:href="#md2a18f3ed9" x="152" y="152.516733" style="fill: #9a3412; stroke: #fffdf9; stroke-width: 0.6"/>
     <use xlink:href="#md2a18f3ed9" x="328" y="280.659679" style="fill: #9a3412; stroke: #fffdf9; stroke-width: 0.6"/>
     <use xlink:href="#md2a18f3ed9" x="504" y="367.379818" style="fill: #9a3412; stroke: #fffdf9; stroke-width: 0.6"/>
    </g>
   </g>
   <g id="PathCollection_4">
    <g clip-path="url(#pb2941056e6)">
     <use xlink:href="#md2a18f3ed9" x="152" y="138.611928" style="fill: #9a3412; stroke: #fffdf9; stroke-width: 0.6"/>
     <use xlink:href="#md2a18f3ed9" x="328" y="265.205727" style="fill: #9a3412; stroke: #fffdf9; stroke-width: 0.6"/>
     <use xlink:href="#md2a18f3ed9" x="504" y="347.791226" style="fill: #9a3412; stroke: #fffdf9; stroke-width: 0.6"/>
    </g>
   </g>
   <g id="PathCollection_5">
    <defs>
     <path id="m8afb9d32f4" d="M 0 2.12132 
C 0.562581 2.12132 1.102195 1.897805 1.5 1.5 
C 1.897805 1.102195 2.12132 0.562581 2.12132 0 
C 2.12132 -0.562581 1.897805 -1.102195 1.5 -1.5 
C 1.102195 -1.897805 0.562581 -2.12132 0 -2.12132 
C -0.562581 -2.12132 -1.102195 -1.897805 -1.5 -1.5 
C -1.897805 -1.102195 -2.12132 -0.562581 -2.12132 0 
C -2.12132 0.562581 -1.897805 1.102195 -1.5 1.5 
C -1.102195 1.897805 -0.562581 2.12132 0 2.12132 
z
" style="stroke: #fffdf9; stroke-width: 0.6"/>
    </defs>
    <g clip-path="url(#pb2941056e6)">
     <use xlink:href="#m8afb9d32f4" x="152" y="132.636585" style="fill: #4a3f6b; stroke: #fffdf9; stroke-width: 0.6"/>
     <use xlink:href="#m8afb9d32f4" x="328" y="259.293697" style="fill: #4a3f6b; stroke: #fffdf9; stroke-width: 0.6"/>
     <use xlink:href="#m8afb9d32f4" x="504" y="346.190455" style="fill: #4a3f6b; stroke: #fffdf9; stroke-width: 0.6"/>
    </g>
   </g>
   <g id="PathCollection_6">
    <g clip-path="url(#pb2941056e6)">
     <use xlink:href="#m8afb9d32f4" x="152" y="128.056483" style="fill: #4a3f6b; stroke: #fffdf9; stroke-width: 0.6"/>
     <use xlink:href="#m8afb9d32f4" x="328" y="250.332575" style="fill: #4a3f6b; stroke: #fffdf9; stroke-width: 0.6"/>
     <use xlink:href="#m8afb9d32f4" x="504" y="342.88273" style="fill: #4a3f6b; stroke: #fffdf9; stroke-width: 0.6"/>
    </g>
   </g>
  </g>
  <g id="line2d_25">
   <path d="M 614 136 
L 642 136 
" style="fill: none; stroke: #0d6a43; stroke-width: 2.4; stroke-linecap: round"/>
  </g>
  <g id="line2d_26">
   <path d="M 614 188 
L 642 188 
" style="fill: none; stroke: #9a3412; stroke-width: 2.4; stroke-linecap: round"/>
  </g>
  <g id="line2d_27">
   <path d="M 614 240 
L 642 240 
" style="fill: none; stroke: #4a3f6b; stroke-width: 2.4; stroke-linecap: round"/>
  </g>
  <g id="text_11">
   <text style="font-size: 16px; font-family: 'DejaVu Sans', sans-serif; text-anchor: start; fill: #1d1c19" x="28" y="32.156875" transform="rotate(-0 28 32.156875)">Neutral MLP, validation bpb</text>
  </g>
  <g id="text_12">
   <text style="font-size: 10px; font-family: 'DejaVu Sans', sans-serif; text-anchor: start; fill: #5e5a53" x="28" y="52.598047" transform="rotate(-0 28 52.598047)">e0-20261004T103838Z-c58a86 · eligible S3 repairs · SwiGLU is the recorded choice</text>
  </g>
  <g id="text_13">
   <text style="font-size: 11px; font-family: 'DejaVu Sans', sans-serif; fill: #5e5a53" transform="translate(18.857852 257.376641) rotate(-90)">val bpb</text>
  </g>
  <g id="text_14">
   <text style="font-size: 11px; font-family: 'DejaVu Sans', sans-serif; text-anchor: start; fill: #5e5a53" x="614" y="88.857852" transform="rotate(-0 614 88.857852)">val bpb</text>
  </g>
  <g id="text_15">
   <text style="font-size: 10px; font-family: 'DejaVu Sans', sans-serif; text-anchor: start; fill: #8a847a" x="614" y="110.597656" transform="rotate(-0 614 110.597656)">T</text>
  </g>
  <g id="text_16">
   <text style="font-size: 10px; font-family: 'DejaVu Sans', sans-serif; text-anchor: start; fill: #8a847a" x="674" y="110.597656" transform="rotate(-0 674 110.597656)">2T</text>
  </g>
  <g id="text_17">
   <text style="font-size: 10px; font-family: 'DejaVu Sans', sans-serif; text-anchor: start; fill: #8a847a" x="734" y="110.597656" transform="rotate(-0 734 110.597656)">4T</text>
  </g>
  <g id="text_18">
   <text style="font-size: 12px; font-family: 'DejaVu Sans', sans-serif; text-anchor: start; fill: #1d1c19" x="650" y="139.117656" transform="rotate(-0 650 139.117656)">gelu mean</text>
  </g>
  <g id="text_19">
   <text style="font-size: 11px; font-family: 'DejaVu Sans', sans-serif; text-anchor: start; fill: #3f3c37" x="614" y="160.857422" transform="rotate(-0 614 160.857422)">1.5076</text>
  </g>
  <g id="text_20">
   <text style="font-size: 11px; font-family: 'DejaVu Sans', sans-serif; text-anchor: start; fill: #3f3c37" x="674" y="160.857422" transform="rotate(-0 674 160.857422)">1.3856</text>
  </g>
  <g id="text_21">
   <text style="font-size: 11px; font-family: 'DejaVu Sans', sans-serif; text-anchor: start; fill: #3f3c37" x="734" y="160.857422" transform="rotate(-0 734 160.857422)">1.3059</text>
  </g>
  <g id="text_22">
   <text style="font-size: 12px; font-family: 'DejaVu Sans', sans-serif; text-anchor: start; fill: #1d1c19" x="650" y="191.117656" transform="rotate(-0 650 191.117656)">swiglu mean</text>
  </g>
  <g id="text_23">
   <text style="font-size: 11px; font-family: 'DejaVu Sans', sans-serif; text-anchor: start; fill: #3f3c37" x="614" y="212.857422" transform="rotate(-0 614 212.857422)">1.4631</text>
  </g>
  <g id="text_24">
   <text style="font-size: 11px; font-family: 'DejaVu Sans', sans-serif; text-anchor: start; fill: #3f3c37" x="674" y="212.857422" transform="rotate(-0 674 212.857422)">1.3473</text>
  </g>
  <g id="text_25">
   <text style="font-size: 11px; font-family: 'DejaVu Sans', sans-serif; text-anchor: start; fill: #3f3c37" x="734" y="212.857422" transform="rotate(-0 734 212.857422)">1.2704</text>
  </g>
  <g id="text_26">
   <text style="font-size: 12px; font-family: 'DejaVu Sans', sans-serif; text-anchor: start; fill: #1d1c19" x="650" y="243.117656" transform="rotate(-0 650 243.117656)">relu2 mean</text>
  </g>
  <g id="text_27">
   <text style="font-size: 11px; font-family: 'DejaVu Sans', sans-serif; text-anchor: start; fill: #3f3c37" x="614" y="264.857422" transform="rotate(-0 614 264.857422)">1.4770</text>
  </g>
  <g id="text_28">
   <text style="font-size: 11px; font-family: 'DejaVu Sans', sans-serif; text-anchor: start; fill: #3f3c37" x="674" y="264.857422" transform="rotate(-0 674 264.857422)">1.3638</text>
  </g>
  <g id="text_29">
   <text style="font-size: 11px; font-family: 'DejaVu Sans', sans-serif; text-anchor: start; fill: #3f3c37" x="734" y="264.857422" transform="rotate(-0 734 264.857422)">1.2822</text>
  </g>
  <g id="text_30">
   <text style="font-size: 11px; font-family: 'DejaVu Sans', sans-serif; text-anchor: start; fill: #3f3c37" x="614" y="294.857852" transform="rotate(-0 614 294.857852)">SwiGLU mean is lower</text>
  </g>
  <g id="text_31">
   <text style="font-size: 11px; font-family: 'DejaVu Sans', sans-serif; text-anchor: start; fill: #3f3c37" x="614" y="310.857852" transform="rotate(-0 614 310.857852)">at T, 2T and 4T.</text>
  </g>
  <g id="text_32">
   <text style="font-size: 11px; font-family: 'DejaVu Sans', sans-serif; text-anchor: start; fill: #3f3c37" x="614" y="326.857852" transform="rotate(-0 614 326.857852)">Nominal d_ff is 274.</text>
  </g>
  <g id="text_33">
   <text style="font-size: 10px; font-family: 'DejaVu Sans', sans-serif; text-anchor: start; fill: #8a847a" x="614" y="378.598047" transform="rotate(-0 614 378.598047)">Thin lines are seeds.</text>
  </g>
  <g id="text_34">
   <text style="font-size: 10px; font-family: 'DejaVu Sans', sans-serif; text-anchor: start; fill: #8a847a" x="614" y="396.598047" transform="rotate(-0 614 396.598047)">Lines join measured ends only.</text>
  </g>
 </g>
 <defs>
  <clipPath id="pb2941056e6">
   <rect x="64" y="72" width="528" height="330"/>
  </clipPath>
 </defs>
</svg>
